<?xml version="1.0" encoding="utf-8"?>
<svg version="1.1" xmlns:xlink="http://www.w3.org/1999/xlink" width="7px" height="10px" xmlns="http://www.w3.org/2000/svg">
  <g transform="matrix(1 0 0 1 -460 -14 )">
    <path d="M 6.8701171875 6.04403409090909  C 6.95670572916667 6.13399621212121  7 6.2405303030303  7 6.36363636363636  C 7 6.48674242424242  6.95670572916667 6.59327651515151  6.8701171875 6.68323863636364  L 3.8076171875 9.86505681818182  C 3.72102864583333 9.95501893939394  3.61848958333333 10  3.5 10  C 3.38151041666667 10  3.27897135416667 9.95501893939394  3.1923828125 9.86505681818182  L 0.1298828125 6.68323863636364  C 0.0432942708333333 6.59327651515151  0 6.48674242424242  0 6.36363636363636  C 0 6.2405303030303  0.0432942708333333 6.13399621212121  0.1298828125 6.04403409090909  C 0.216471354166667 5.95407196969697  0.319010416666667 5.90909090909091  0.4375 5.90909090909091  L 6.5625 5.90909090909091  C 6.68098958333333 5.90909090909091  6.78352864583333 5.95407196969697  6.8701171875 6.04403409090909  Z M 6.8701171875 3.31676136363636  C 6.95670572916667 3.40672348484848  7 3.51325757575757  7 3.63636363636364  C 7 3.7594696969697  6.95670572916667 3.86600378787879  6.8701171875 3.95596590909091  C 6.78352864583333 4.04592803030303  6.68098958333333 4.09090909090909  6.5625 4.09090909090909  L 0.4375 4.09090909090909  C 0.319010416666667 4.09090909090909  0.216471354166667 4.04592803030303  0.1298828125 3.95596590909091  C 0.0432942708333333 3.86600378787879  0 3.7594696969697  0 3.63636363636364  C 0 3.51325757575757  0.0432942708333333 3.40672348484848  0.1298828125 3.31676136363636  L 3.1923828125 0.134943181818182  C 3.27897135416667 0.0449810606060597  3.38151041666667 0  3.5 0  C 3.61848958333333 0  3.72102864583333 0.0449810606060597  3.8076171875 0.134943181818182  L 6.8701171875 3.31676136363636  Z " fill-rule="nonzero" fill="#000000" stroke="none" fill-opacity="0.349019607843137" transform="matrix(1 0 0 1 460 14 )" />
  </g>
</svg>