<?xml version="1.0" encoding="utf-8"?>
<svg version="1.1" xmlns:xlink="http://www.w3.org/1999/xlink" width="33px" height="32px" xmlns="http://www.w3.org/2000/svg">
  <g transform="matrix(1 0 0 1 -1506 -32 )">
    <path d="M 25.0078125 29.06  C 25.2590144230769 28.8066666666667  25.3846153846154 28.5066666666667  25.3846153846154 28.16  C 25.3846153846154 27.8133333333333  25.2590144230769 27.5133333333333  25.0078125 27.26  C 24.7566105769231 27.0066666666667  24.4591346153846 26.88  24.1153846153846 26.88  C 23.7716346153846 26.88  23.4741586538462 27.0066666666667  23.2229567307692 27.26  C 22.9717548076923 27.5133333333333  22.8461538461538 27.8133333333333  22.8461538461538 28.16  C 22.8461538461538 28.5066666666667  22.9717548076923 28.8066666666667  23.2229567307692 29.06  C 23.4741586538462 29.3133333333333  23.7716346153846 29.44  24.1153846153846 29.44  C 24.4591346153846 29.44  24.7566105769231 29.3133333333333  25.0078125 29.06  Z M 30.0847355769231 29.06  C 30.3359375 28.8066666666667  30.4615384615385 28.5066666666667  30.4615384615385 28.16  C 30.4615384615385 27.8133333333333  30.3359375 27.5133333333333  30.0847355769231 27.26  C 29.8335336538462 27.0066666666667  29.5360576923077 26.88  29.1923076923077 26.88  C 28.8485576923077 26.88  28.5510817307692 27.0066666666667  28.2998798076923 27.26  C 28.0486778846154 27.5133333333333  27.9230769230769 27.8133333333333  27.9230769230769 28.16  C 27.9230769230769 28.5066666666667  28.0486778846154 28.8066666666667  28.2998798076923 29.06  C 28.5510817307692 29.3133333333333  28.8485576923077 29.44  29.1923076923077 29.44  C 29.5360576923077 29.44  29.8335336538462 29.3133333333333  30.0847355769231 29.06  Z M 32.4447115384615 22.32  C 32.8149038461538 22.6933333333333  33 23.1466666666667  33 23.68  L 33 30.08  C 33 30.6133333333333  32.8149038461538 31.0666666666667  32.4447115384615 31.44  C 32.0745192307692 31.8133333333333  31.625 32  31.0961538461538 32  L 1.90384615384615 32  C 1.375 32  0.925480769230769 31.8133333333333  0.555288461538462 31.44  C 0.185096153846154 31.0666666666667  0 30.6133333333333  0 30.08  L 0 23.68  C 0 23.1466666666667  0.185096153846154 22.6933333333333  0.555288461538462 22.32  C 0.925480769230769 21.9466666666667  1.375 21.76  1.90384615384615 21.76  L 10.3719951923077 21.76  C 10.6496394230769 22.5066666666667  11.1156850961538 23.12  11.7701322115385 23.6  C 12.4245793269231 24.08  13.1550480769231 24.32  13.9615384615385 24.32  L 19.0384615384615 24.32  C 19.8449519230769 24.32  20.5754206730769 24.08  21.2298677884615 23.6  C 21.8843149038462 23.12  22.3503605769231 22.5066666666667  22.6280048076923 21.76  L 31.0961538461538 21.76  C 31.625 21.76  32.0745192307692 21.9466666666667  32.4447115384615 22.32  Z M 26.2770432692308 9.34  C 26.6868990384615 9.74  26.7794471153846 10.2  26.5546875 10.72  C 26.3299278846154 11.2533333333333  25.9399038461538 11.52  25.3846153846154 11.52  L 20.3076923076923 11.52  L 20.3076923076923 20.48  C 20.3076923076923 20.8266666666667  20.1820913461538 21.1266666666667  19.9308894230769 21.38  C 19.6796875 21.6333333333333  19.3822115384615 21.76  19.0384615384615 21.76  L 13.9615384615385 21.76  C 13.6177884615385 21.76  13.3203125 21.6333333333333  13.0691105769231 21.38  C 12.8179086538462 21.1266666666667  12.6923076923077 20.8266666666667  12.6923076923077 20.48  L 12.6923076923077 11.52  L 7.61538461538462 11.52  C 7.06009615384615 11.52  6.67007211538462 11.2533333333333  6.4453125 10.72  C 6.22055288461539 10.2  6.31310096153846 9.74  6.72295673076923 9.34  L 15.6075721153846 0.379999999999999  C 15.8455528846154 0.126666666666665  16.1430288461538 0  16.5 0  C 16.8569711538462 0  17.1544471153846 0.126666666666665  17.3924278846154 0.379999999999999  L 26.2770432692308 9.34  Z " fill-rule="nonzero" fill="#ffffff" stroke="none" fill-opacity="0.647058823529412" transform="matrix(1 0 0 1 1506 32 )" />
  </g>
</svg>